<svg width="20" height="20" viewBox="0 0 20 20" fill="none" xmlns="http://www.w3.org/2000/svg">
      <path d="M10 13.5355V6.46447M10 13.5355L7.34835 10.8839M10 13.5355L12.6517 10.8839M15.3033 4.6967C14.6068 4.00026 13.7801 3.44782 12.8701 3.0709C11.9602 2.69399 10.9849 2.5 10 2.5C9.01508 2.5 8.03982 2.69399 7.12987 3.0709C6.21993 3.44782 5.39314 4.00026 4.6967 4.6967C4.00026 5.39314 3.44781 6.21993 3.0709 7.12987C2.69399 8.03982 2.5 9.01508 2.5 10C2.5 10.9849 2.69399 11.9602 3.0709 12.8702C3.44781 13.7801 4.00026 14.6068 4.6967 15.3033C6.10323 16.7098 8.01087 17.5 10 17.5C11.9891 17.5 13.8968 16.7098 15.3033 15.3033C16.7098 13.8968 17.5 11.9891 17.5 10C17.5 8.01087 16.7098 6.10323 15.3033 4.6967Z" stroke="#6C8595" stroke-width="1.66667" stroke-linecap="round" stroke-linejoin="round"/>
      </svg>