<svg width="21" height="20" viewBox="0 0 21 20" fill="none" xmlns="http://www.w3.org/2000/svg">
<path d="M9.31348 4.16667C9.31348 3.72464 9.48907 3.30072 9.80163 2.98816C10.1142 2.67559 10.5381 2.5 10.9801 2.5C11.4222 2.5 11.8461 2.67559 12.1587 2.98816C12.4712 3.30072 12.6468 3.72464 12.6468 4.16667C13.6038 4.61919 14.4196 5.32361 15.0069 6.20442C15.5941 7.08523 15.9305 8.10923 15.9801 9.16667V11.6667C16.0429 12.1848 16.2263 12.6809 16.5158 13.1151C16.8053 13.5493 17.1927 13.9095 17.6468 14.1667H4.31348C4.76759 13.9095 5.15498 13.5493 5.44447 13.1151C5.73395 12.6809 5.91743 12.1848 5.98014 11.6667V9.16667C6.02978 8.10923 6.36623 7.08523 6.95343 6.20442C7.54064 5.32361 8.35647 4.61919 9.31348 4.16667Z" stroke="#141D22" stroke-width="1.66667" stroke-linecap="round" stroke-linejoin="round"/>
<path d="M8.48047 14.1667V15C8.48047 15.6631 8.74386 16.2989 9.2127 16.7678C9.68154 17.2366 10.3174 17.5 10.9805 17.5C11.6435 17.5 12.2794 17.2366 12.7482 16.7678C13.2171 16.2989 13.4805 15.6631 13.4805 15V14.1667" stroke="#141D22" stroke-width="1.66667" stroke-linecap="round" stroke-linejoin="round"/>
</svg>
