<svg width="21" height="20" viewBox="0 0 20 20" fill="none" xmlns="http://www.w3.org/2000/svg">
<path d="M3.48047 10C3.48047 10.9849 3.67446 11.9602 4.05137 12.8701C4.42828 13.7801 4.98073 14.6069 5.67717 15.3033C6.37361 15.9997 7.2004 16.5522 8.11034 16.9291C9.02028 17.306 9.99555 17.5 10.9805 17.5C11.9654 17.5 12.9407 17.306 13.8506 16.9291C14.7605 16.5522 15.5873 15.9997 16.2838 15.3033C16.9802 14.6069 17.5327 13.7801 17.9096 12.8701C18.2865 11.9602 18.4805 10.9849 18.4805 10C18.4805 9.01509 18.2865 8.03982 17.9096 7.12987C17.5327 6.21993 16.9802 5.39314 16.2838 4.6967C15.5873 4.00026 14.7605 3.44781 13.8506 3.0709C12.9407 2.69399 11.9654 2.5 10.9805 2.5C9.99555 2.5 9.02028 2.69399 8.11034 3.0709C7.2004 3.44781 6.37361 4.00026 5.67717 4.6967C4.98073 5.39314 4.42828 6.21993 4.05137 7.12987C3.67446 8.03982 3.48047 9.01509 3.48047 10Z" stroke="#141D22" stroke-width="1.66667" stroke-linecap="round" stroke-linejoin="round"/>
<path d="M8.48047 8.33331C8.48047 8.99635 8.74386 9.63224 9.2127 10.1011C9.68154 10.5699 10.3174 10.8333 10.9805 10.8333C11.6435 10.8333 12.2794 10.5699 12.7482 10.1011C13.2171 9.63224 13.4805 8.99635 13.4805 8.33331C13.4805 7.67027 13.2171 7.03439 12.7482 6.56555C12.2794 6.09671 11.6435 5.83331 10.9805 5.83331C10.3174 5.83331 9.68154 6.09671 9.2127 6.56555C8.74386 7.03439 8.48047 7.67027 8.48047 8.33331Z" stroke="#141D22" stroke-width="1.66667" stroke-linecap="round" stroke-linejoin="round"/>
<path d="M6.12012 15.7075C6.32637 15.021 6.74842 14.4193 7.32366 13.9916C7.89889 13.564 8.59666 13.3331 9.31345 13.3333H12.6468C13.3645 13.3331 14.0631 13.5645 14.6388 13.9931C15.2144 14.4218 15.6363 15.0248 15.8418 15.7125" stroke="#141D22" stroke-width="1.66667" stroke-linecap="round" stroke-linejoin="round"/>
</svg>
