<svg width="49" height="48" viewBox="0 0 49 48" fill="none" xmlns="http://www.w3.org/2000/svg">
<path d="M25.7804 4.67622C25.7253 4.70382 25.688 4.75841 25.6857 4.82003C25.6823 4.90967 25.7531 4.98502 25.8427 4.98915C35.9802 5.4564 43.8641 13.9928 43.4827 24.1316C43.3888 26.6258 43.0231 28.8344 42.0476 30.9645C41.4734 32.2182 42.0265 33.699 43.283 34.2719C44.5396 34.8448 46.0236 34.2929 46.5978 33.0392C47.8405 30.3257 48.3632 27.4767 48.482 24.3189C48.9672 11.424 38.9272 0.569706 26.027 0.000644578C25.9393 -0.00322653 25.8646 0.0652888 25.8613 0.153067C25.859 0.213425 25.8914 0.269487 25.9433 0.300434C26.7368 0.773928 27.2355 1.66996 27.1535 2.65134C27.0783 3.55088 26.5339 4.29907 25.7804 4.67622Z" fill="#141D22" fill-opacity="0.12"/>
<path d="M40.5389 34.4539C40.5419 34.3923 40.5126 34.3331 40.46 34.3008C40.3834 34.2537 40.2827 34.2783 40.2349 34.3544C34.8412 42.9313 23.5149 45.5821 14.8551 40.2643C12.7247 38.9561 10.9575 37.2912 9.5785 35.3961C8.76684 34.2807 7.2026 34.0329 6.08468 34.8428C4.96677 35.6527 4.7185 37.2134 5.53017 38.3288C7.28689 40.743 9.53571 42.8592 12.2329 44.5154C23.2467 51.2788 37.6561 47.8949 44.4974 36.968C44.5441 36.8934 44.5211 36.7946 44.4461 36.7485C44.3946 36.7169 44.3297 36.7175 44.2771 36.7474C43.4737 37.2038 42.4466 37.1964 41.6306 36.6425C40.8826 36.1348 40.4975 35.2939 40.5389 34.4539Z" fill="#141D22" fill-opacity="0.12"/>
<path d="M7.53818 32.2068C7.59017 32.2406 7.65657 32.245 7.71103 32.2154C7.78973 32.1726 7.81817 32.0733 7.77585 31.9943C2.89078 22.8782 6.24355 12.1008 15.1724 7.2435C17.3686 6.04873 19.6998 5.35486 22.0424 5.11895C23.4212 4.9801 24.4075 3.73735 24.2455 2.34316C24.0835 0.94897 22.8344 -0.0686811 21.4556 0.0701726C18.4714 0.370697 15.5072 1.25493 12.7266 2.76761C1.37092 8.94514 -2.85343 22.797 3.38492 34.3869C3.4265 34.4641 3.52358 34.4934 3.60064 34.4514C3.65398 34.4224 3.68563 34.3655 3.68521 34.3049C3.6787 33.3669 4.19011 32.4707 5.07808 32.04C5.89202 31.6451 6.82046 31.7393 7.53818 32.2068Z" fill="#141D22" fill-opacity="0.12"/>
</svg>
