<svg width="20" height="20" viewBox="0 0 20 20" fill="none" xmlns="http://www.w3.org/2000/svg">
<path d="M16.5625 5.22505C16.8489 5.38793 17.0867 5.62419 17.2515 5.9095C17.4162 6.19483 17.5021 6.5189 17.5 6.84838V12.9184C17.5 13.5926 17.1308 14.2142 16.535 14.5417L10.91 18.1001C10.6312 18.2531 10.3182 18.3334 10 18.3334C9.68183 18.3334 9.36883 18.2531 9.09 18.1001L3.465 14.5417C3.17347 14.3824 2.9301 14.1476 2.76034 13.8621C2.59058 13.5766 2.50067 13.2506 2.5 12.9184V6.84754C2.5 6.17338 2.86917 5.55255 3.465 5.22505L9.09 1.90838C9.37708 1.75007 9.69967 1.66705 10.0275 1.66705C10.3553 1.66705 10.6779 1.75007 10.965 1.90838L16.59 5.22505H16.5625Z" stroke="#6C8595" stroke-width="1.66667" stroke-linecap="round" stroke-linejoin="round"/>
<path d="M7.5 10C7.5 10.663 7.76339 11.2989 8.23223 11.7677C8.70108 12.2366 9.337 12.5 10 12.5C10.663 12.5 11.2989 12.2366 11.7677 11.7677C12.2366 11.2989 12.5 10.663 12.5 10C12.5 9.337 12.2366 8.70108 11.7677 8.23223C11.2989 7.76339 10.663 7.5 10 7.5C9.337 7.5 8.70108 7.76339 8.23223 8.23223C7.76339 8.70108 7.5 9.337 7.5 10Z" stroke="#6C8595" stroke-width="1.66667" stroke-linecap="round" stroke-linejoin="round"/>
</svg>
