<svg width="13" height="13" viewBox="0 0 13 13" fill="none" xmlns="http://www.w3.org/2000/svg">
<path d="M2.66602 2.13672C2.66602 2.13672 2.94922 1.85352 3.51562 1.28711C4.08203 0.720703 5.16992 0.4375 6.7793 0.4375C8.38867 0.4375 9.75977 1.00391 10.8926 2.13672C12.0254 3.26953 12.5918 4.64062 12.5918 6.25C12.5918 7.85938 12.0254 9.23047 10.8926 10.3633C9.75977 11.4961 8.38867 12.0625 6.7793 12.0625C5.16992 12.0625 3.79883 11.4961 2.66602 10.3633C1.5332 9.23047 0.966797 7.85938 0.966797 6.25C0.966797 4.64062 1.5332 3.26953 2.66602 2.13672ZM8.93555 7.77344C8.99805 7.71094 9.0293 7.63281 9.0293 7.53906C9.0293 7.41406 8.98242 7.3125 8.88867 7.23438L7.5293 6.25V2.875C7.5293 2.76562 7.49414 2.67578 7.42383 2.60547C7.35352 2.53516 7.26367 2.5 7.1543 2.5H6.4043C6.29492 2.5 6.20508 2.53516 6.13477 2.60547C6.06445 2.67578 6.0293 2.76562 6.0293 2.875V6.53125C6.0293 6.82812 6.14648 7.07031 6.38086 7.25781L7.95117 8.40625C8.01367 8.46875 8.0918 8.5 8.18555 8.5C8.31055 8.5 8.4043 8.45312 8.4668 8.35938L8.93555 7.77344Z" fill="black" fill-opacity="0.7"/>
</svg>
