<svg width="21" height="20" viewBox="0 0 21 20" fill="none" xmlns="http://www.w3.org/2000/svg">
<path d="M15.0765 6.66665V4.16665C15.0765 3.94563 14.9887 3.73367 14.8324 3.57739C14.6761 3.42111 14.4642 3.33331 14.2432 3.33331H5.90983C5.4678 3.33331 5.04388 3.50891 4.73132 3.82147C4.41876 4.13403 4.24316 4.55795 4.24316 4.99998M4.24316 4.99998C4.24316 5.44201 4.41876 5.86593 4.73132 6.17849C5.04388 6.49105 5.4678 6.66665 5.90983 6.66665H15.9098C16.1308 6.66665 16.3428 6.75444 16.4991 6.91072C16.6554 7.067 16.7432 7.27897 16.7432 7.49998V9.99998M4.24316 4.99998V15C4.24316 15.442 4.41876 15.8659 4.73132 16.1785C5.04388 16.4911 5.4678 16.6666 5.90983 16.6666H15.9098C16.1308 16.6666 16.3428 16.5788 16.4991 16.4226C16.6554 16.2663 16.7432 16.0543 16.7432 15.8333V13.3333" stroke="#141D22" stroke-width="1.66667" stroke-linecap="round" stroke-linejoin="round"/>
<path d="M17.5771 10V13.3333H14.2438C13.8018 13.3333 13.3779 13.1577 13.0653 12.8452C12.7527 12.5326 12.5771 12.1087 12.5771 11.6667C12.5771 11.2246 12.7527 10.8007 13.0653 10.4882C13.3779 10.1756 13.8018 10 14.2438 10H17.5771Z" stroke="#141D22" stroke-width="1.66667" stroke-linecap="round" stroke-linejoin="round"/>
</svg>
