<svg width="20" height="20" viewBox="0 0 20 20" fill="none" xmlns="http://www.w3.org/2000/svg">
      <path d="M12.5 7.5L7.5 12.5M12.5 7.5V11.25M12.5 7.5H8.75M2.5 10C2.5 10.9849 2.69399 11.9602 3.0709 12.8702C3.44782 13.7801 4.00026 14.6068 4.6967 15.3033C5.39314 15.9997 6.21993 16.5522 7.12987 16.9291C8.03982 17.306 9.01508 17.5 10 17.5C10.9849 17.5 11.9602 17.306 12.8702 16.9291C13.7801 16.5522 14.6068 15.9997 15.3033 15.3033C15.9997 14.6068 16.5522 13.7801 16.9291 12.8702C17.306 11.9602 17.5 10.9849 17.5 10C17.5 8.01087 16.7098 6.10323 15.3033 4.6967C13.8968 3.29018 11.9891 2.5 10 2.5C8.01087 2.5 6.10323 3.29018 4.6967 4.6967C3.29018 6.10323 2.5 8.01087 2.5 10Z" stroke="#6C8595" stroke-width="1.66667" stroke-linecap="round" stroke-linejoin="round"/>
      </svg>